<svg width="133" height="31" viewBox="0 0 133 31" fill="none" xmlns="http://www.w3.org/2000/svg">
<g clip-path="url(#clip0_6_997)">
<path d="M90.2221 6.69104C88.5132 5.60793 86.6404 5.06958 84.61 5.06958C82.6237 5.16571 80.8076 5.74893 79.1682 6.83204C77.5287 7.91515 76.7089 10.0493 76.7089 13.241V24.2323H81.5643V12.254C81.5643 11.126 81.8859 10.3057 82.5354 9.78655C83.1849 9.26743 83.9227 9.01107 84.755 9.01107C85.5874 9.01107 86.3377 9.26743 87.0061 9.78655C87.6745 10.3057 88.0088 11.126 88.0088 12.254V21.8353C88.0088 22.5403 88.2295 23.1171 88.6645 23.5593C89.1059 24.008 89.6672 24.2259 90.3608 24.2259H92.7885V13.2346C92.7885 9.94678 91.9309 7.76133 90.2221 6.68463V6.69104Z" fill="white"/>
<path d="M62.0482 0C55.4776 0 50.143 5.42836 50.143 12.1193C50.143 18.8102 55.4776 24.2386 62.0482 24.2386C68.6187 24.2386 73.9534 18.8102 73.9534 12.1193C73.9534 5.42836 68.625 0 62.0482 0ZM62.0482 19.2909C61.7329 19.2909 61.4239 19.2652 61.1212 19.2204L65.4533 11.3118C65.6487 10.9657 65.7055 10.5555 65.6046 10.171C65.5163 9.84412 65.3335 9.56853 65.0749 9.36986C65.0308 9.3314 64.974 9.29295 64.9236 9.26091C64.5515 9.03659 64.0597 8.99814 63.7129 9.13273L59.1223 10.3825C58.7377 10.485 58.4224 10.735 58.2269 11.081C58.0314 11.4271 57.9747 11.8373 58.0756 12.2218C58.1765 12.6128 58.4224 12.9332 58.7629 13.1319C59.1034 13.3306 59.507 13.3818 59.8853 13.2793L61.2095 12.9204L58.4287 17.9899C58.3909 18.0604 58.3656 18.1309 58.3404 18.2014C56.3352 16.9388 54.9984 14.6829 54.9984 12.1129C54.9984 8.15216 58.1513 4.94129 62.0419 4.94129C65.9325 4.94129 69.0854 8.15216 69.0854 12.1129C69.0854 16.0736 65.9325 19.2845 62.0419 19.2845L62.0482 19.2909Z" fill="white"/>
<path d="M18.9928 0H2.49706C1.80343 0 1.2107 0.243539 0.725156 0.737027C0.239617 1.23051 0 1.83295 0 2.53794V4.30039H7.0687V24.2386H11.9935V4.30039H18.9928V0Z" fill="white"/>
<path d="M95.7585 21.8415V24.2385H99.5734V20.3611H97.2151C96.244 20.3611 95.7585 20.8546 95.7585 21.8415Z" fill="white"/>
<path d="M112.784 0C111.63 0 110.842 0.53835 110.426 1.62146L102.525 24.2386H107.727L109.253 19.2332H118.541L120.136 24.2386H125.339L116.668 0H112.784ZM110.564 15.1507L113.894 4.86438L117.223 15.1507H110.571H110.564Z" fill="white"/>
<path d="M130.572 0C129.879 0 129.292 0.243539 128.807 0.737027C128.321 1.23051 128.082 1.82655 128.082 2.53153V24.2322H133V0H130.572Z" fill="white"/>
<path d="M42.2167 7.18445L38.9566 18.7398L35.2111 5.49249H28.4387C27.2785 5.52454 26.1561 5.67835 25.0589 5.98598C23.8797 6.31284 22.8519 6.83196 21.9754 7.53694C21.0484 8.28679 20.3233 9.28658 19.7936 10.5299C19.2639 11.7732 18.9991 13.3114 18.9991 15.1443V24.2322H23.8545V14.5804C23.8545 13.1704 24.1761 12.1386 24.8256 11.4784C25.475 10.8183 26.465 10.4915 27.8082 10.4915H31.6168L36.3335 24.1617C36.6551 25.1487 36.5542 25.8665 36.0245 26.3087C35.4948 26.7573 34.7634 26.9752 33.8427 26.9752H32.5248V30.8526C32.6636 30.8526 32.8338 30.8655 33.0419 30.8911C33.25 30.9167 33.4202 30.9488 33.559 30.9936H34.53C36.4218 30.9936 37.7901 30.7116 38.6224 30.1477C39.4548 29.4875 40.1484 28.3852 40.7033 26.8342L47.772 5.48608H44.4426C43.2382 5.48608 42.5005 6.05007 42.223 7.17804L42.2167 7.18445Z" fill="white"/>
</g>
<defs>
<clipPath id="clip0_6_997">
<rect width="133" height="31" fill="white"/>
</clipPath>
</defs>
</svg>
