<svg width="862" height="198" viewBox="0 0 862 198" fill="none" xmlns="http://www.w3.org/2000/svg">
<g clip-path="url(#clip0_55_1604)">
<path d="M584.748 42.5922C573.672 35.6975 561.534 32.2705 548.375 32.2705C535.501 32.8825 523.731 36.595 513.105 43.4897C502.479 50.3844 497.166 63.9698 497.166 84.2867V154.254H528.635V78.004C528.635 70.8237 530.719 65.6017 534.929 62.2971C539.138 58.9926 543.92 57.3607 549.315 57.3607C554.709 57.3607 559.573 58.9926 563.905 62.2971C568.237 65.6017 570.403 70.8237 570.403 78.004V138.996C570.403 143.483 571.833 147.155 574.653 149.97C577.514 152.826 581.151 154.213 585.647 154.213H601.381V84.2459C601.381 63.317 595.823 49.4053 584.748 42.5514V42.5922Z" fill="url(#paint0_linear_55_1604)"/>
<path d="M402.147 0C359.562 0 324.987 34.5551 324.987 77.1472C324.987 119.739 359.562 154.294 402.147 154.294C444.732 154.294 479.307 119.739 479.307 77.1472C479.307 34.5551 444.773 0 402.147 0ZM402.147 122.799C400.103 122.799 398.101 122.636 396.139 122.35L424.216 72.0068C425.483 69.8037 425.851 67.1927 425.197 64.7449C424.625 62.6642 423.439 60.91 421.764 59.6453C421.478 59.4005 421.11 59.1557 420.783 58.9517C418.372 57.5238 415.184 57.279 412.936 58.1358L383.184 66.0912C380.691 66.7439 378.647 68.335 377.38 70.5381C376.113 72.7411 375.746 75.3521 376.4 77.7999C377.053 80.2886 378.647 82.3284 380.854 83.5931C383.061 84.8578 385.677 85.1842 388.129 84.5314L396.711 82.2468L378.688 114.517C378.443 114.966 378.28 115.415 378.116 115.864C365.12 107.827 356.456 93.466 356.456 77.1064C356.456 51.8938 376.89 31.4545 402.106 31.4545C427.322 31.4545 447.756 51.8938 447.756 77.1064C447.756 102.319 427.322 122.758 402.106 122.758L402.147 122.799Z" fill="url(#paint1_linear_55_1604)"/>
<path d="M123.096 0H16.184C11.6884 0 7.84677 1.55029 4.69989 4.69166C1.55301 7.83303 0 11.668 0 16.1556V27.3748H45.8137V154.294H77.732V27.3748H123.096V0Z" fill="#6E59A6"/>
<path d="M620.63 139.036V154.295H645.356V129.612H630.071C623.777 129.612 620.63 132.754 620.63 139.036Z" fill="#7158A6"/>
<path d="M730.975 0C723.496 0 718.388 3.42695 715.69 10.3216L664.482 154.294H698.199L708.089 122.432H768.288L778.628 154.294H812.345L756.15 0H730.975ZM716.59 96.4442L738.168 30.9649L759.747 96.4442H716.631H716.59Z" fill="#7158A6"/>
<path d="M846.266 0C841.77 0 837.969 1.55029 834.822 4.69166C831.676 7.83303 830.122 11.6272 830.122 16.1148V154.254H862V0H846.266Z" fill="#7158A6"/>
<path d="M273.615 45.7336L252.486 119.291L228.21 34.9632H184.317C176.797 35.1671 169.523 36.1463 162.412 38.1045C154.769 40.1852 148.108 43.4897 142.427 47.9774C136.419 52.7507 131.719 59.115 128.286 67.0296C124.854 74.9443 123.137 84.7355 123.137 96.4035V154.254H154.606V92.8134C154.606 83.838 156.69 77.2697 160.9 73.0676C165.109 68.8655 171.525 66.7848 180.23 66.7848H204.915L235.485 153.805C237.569 160.088 236.915 164.657 233.482 167.472C230.049 170.328 225.308 171.715 219.342 171.715H210.8V196.397C211.699 196.397 212.803 196.479 214.151 196.642C215.5 196.805 216.603 197.009 217.503 197.295H223.796C236.057 197.295 244.925 195.499 250.32 191.909C255.715 187.707 260.21 180.69 263.807 170.817L309.62 34.9224H288.042C280.236 34.9224 275.454 38.5125 273.656 45.6928L273.615 45.7336Z" fill="#7158A6"/>
</g>
<defs>
<linearGradient id="paint0_linear_55_1604" x1="360.011" y1="199.13" x2="586.055" y2="83.599" gradientUnits="userSpaceOnUse">
<stop stop-color="#D6196A"/>
<stop offset="0.61" stop-color="#E7464A"/>
<stop offset="1" stop-color="#F15E39"/>
</linearGradient>
<linearGradient id="paint1_linear_55_1604" x1="312.767" y1="122.677" x2="538.77" y2="7.1452" gradientUnits="userSpaceOnUse">
<stop stop-color="#D6196A"/>
<stop offset="0.61" stop-color="#E7464A"/>
<stop offset="1" stop-color="#F15E39"/>
</linearGradient>
<clipPath id="clip0_55_1604">
<rect width="862" height="197.335" fill="white"/>
</clipPath>
</defs>
</svg>
